<svg width="163" height="81" viewBox="0 0 163 81" fill="none" xmlns="http://www.w3.org/2000/svg">
<g clip-path="url(#clip0_2_1970)">
<path d="M19.3008 11H143.401M143.401 48V78C143.401 79.1 142.501 80 141.401 80H21.3008C20.2008 80 19.3008 79.1 19.3008 78V3C19.3008 1.9 20.2008 1 21.3008 1H141.401C142.501 1 143.401 1.9 143.401 3V40V48Z" stroke="#B2B2B2" stroke-width="2" stroke-miterlimit="10"/>
<path d="M24.4992 7.60001C25.4933 7.60001 26.2992 6.7941 26.2992 5.79999C26.2992 4.80588 25.4933 4 24.4992 4C23.5051 4 22.6992 4.80588 22.6992 5.79999C22.6992 6.7941 23.5051 7.60001 24.4992 7.60001Z" fill="#B2B2B2"/>
<path d="M30.1008 7.60001C31.0949 7.60001 31.9008 6.7941 31.9008 5.79999C31.9008 4.80588 31.0949 4 30.1008 4C29.1067 4 28.3008 4.80588 28.3008 5.79999C28.3008 6.7941 29.1067 7.60001 30.1008 7.60001Z" fill="#B2B2B2"/>
<path d="M35.7004 7.60001C36.6945 7.60001 37.5004 6.7941 37.5004 5.79999C37.5004 4.80588 36.6945 4 35.7004 4C34.7063 4 33.9004 4.80588 33.9004 5.79999C33.9004 6.7941 34.7063 7.60001 35.7004 7.60001Z" fill="#B2B2B2"/>
<path d="M156.7 39.8984L160.7 43.9984L156.7 48.0984M123.6 43.9984H160.3H123.6Z" stroke="#B2B2B2" stroke-width="2" stroke-miterlimit="10"/>
</g>
<defs>
<clipPath id="clip0_2_1970">
<rect width="163" height="80.9" fill="white"/>
</clipPath>
</defs>
</svg>
